# xmcd
#
# Track frame offsets:
#	150
#	13994
#	34227
#	48792
#	68537
#	72233
#	101014
#	118587
#	139145
#	143397
#
# Disc length: 2582 seconds
#
# Revision: 1
# Processed by: cddbd v1.5.2PL0 Copyright (c) Steve Scherf et al.
# Submitted via: audiograbber 1.83.01
#
DISCID=860a140a
DTITLE=Garrett T. Capps - In The Shadows (Again)
DYEAR=2018
DGENRE=Country
TTITLE0=Born into a Ballroom
TTITLE1=Go Home
TTITLE2=In the Shadows (Again)
TTITLE3=The Interstate 35 Waltz
TTITLE4=The Horizon
TTITLE5=Here Right Now
TTITLE6=Dancin' Hands
TTITLE7=Baby Please
TTITLE8=Can You Harness the Light
TTITLE9=Trouble's Callin'
EXTD=
EXTT0=
EXTT1=
EXTT2=
EXTT3=
EXTT4=
EXTT5=
EXTT6=
EXTT7=
EXTT8=
EXTT9=
PLAYORDER=
